/* XPM */
static char *bitcoin128[] = {
/* columns rows colors chars-per-pixel */
"128 128 53 1 ",
"  c None",
". c #D67C1F",
"X c #D77C20",
"o c #D87F22",
"O c #D98225",
"+ c #DB8629",
"@ c #DC8A2D",
"# c #DE912E",
"$ c #DE8E31",
"% c #DF9133",
"& c #E09437",
"* c #E19639",
"= c #E39B3E",
"- c #E49E42",
"; c #E5A046",
": c #E5A24A",
"> c #E6A652",
", c #E7A957",
"< c #E7AA59",
"1 c #E8AC5E",
"2 c #E9AF63",
"3 c #E9B066",
"4 c #EAB36B",
"5 c #EBB670",
"6 c #EBB976",
"7 c #ECBB7B",
"8 c #EDBF82",
"9 c #EEC185",
"0 c #EEC48C",
"q c #EFC791",
"w c #EFC893",
"e c #F0C995",
"r c #F1CD9D",
"t c #F1CFA1",
"y c #F2D1A5",
"u c #F3D4AB",
"i c #F3D7B0",
"p c #F4D9B4",
"a c #F5DDBC",
"s c #F6DFC0",
"d c #F6E0C3",
"f c #F7E4CA",
"g c #F8E6CF",
"h c #F7E7D0",
"j c #F8E7D0",
"k c #F9EAD5",
"l c #FAEDDC",
"z c #FAEFE0",
"x c #FBF1E4",
"c c #FBF5EB",
"v c #FCF7F0",
"b c #FDF9F3",
"n c #FEFEFE",
/* pixels */
"                                                                                                                                ",
"                                                        ................                                                        ",
"                                                  ........X...................                                                  ",
"                                              ....................................                                              ",
"                                           ...........X.................X......X.....                                           ",
"                                         ...X........................o.................                                         ",
"                                      ....................................................                                      ",
"                                    .X........X.......X....X............X................X..                                    ",
"                                  ............................................................                                  ",
"                                ...X.........................X..................................                                ",
"                               .............................XX.X.........o.......................                               ",
"                             ...X..........................OXOOOOOOXOo...........................X.                             ",
"                            .............X..XX......XO+@%%*==========&&$@+Oo.......XX.......X.......                            ",
"                          .......X.......X..XX..XO@%*==;-;---=-----------==*$@Oo.......X..............                          ",
"                         ...........X.......Xoo$*=-----=-----------------------&$OX....................                         ",
"                        .................XXo+*-----;---;--------------------------%@O.........X.........                        ",
"                       .....X.........XX.O$*------------------;-----;;=-------------%#OOXXX..........XX..                       ",
"                      .X.....X........X+$=-------------------------==-=;------------;;%#OO................                      ",
"                    ..X.........XXXX.+$*-------------------------;=;==;=--------------;;%%O............X....                    ",
"                   ..X.........XXXXX+*----------------------------;=;;=;---------------;;;%@XX.X.............                   ",
"                  ..............XX+$--------------------------------=;=;--------------------%@................                  ",
"                 ...X...........X@----------------------------------;=-----;----------------;%@O..............                  ",
"                 ..............O&-------------------------------------=;----------;--;---------%OX........X....                 ",
"                ..............+*--------------------------------------------------=--=----------*O..............                ",
"               .....XX.......+=-----------------------------------------------------;==;=--------=+....X.........               ",
"              ......XX.....o@---------------------------------------------------------;=;=---------@...X..........              ",
"             ..X..........X@-----------------------------------;----------------------;------------=@o.............             ",
"             ............X@-----------------------------------------------------------=--------------@X............             ",
"            ..........X..@=---------------------------------------------;--------------------------=-=@..........o..            ",
"           ..........X..@-----------------------------------------------------------=;----------;=;;;-=@.............           ",
"           ............+=--------------------------------------------------------------=--------=;-----=+............           ",
"          ...........XO=---------------------------------------------------------------;--------==---;--=O............          ",
"         ............O%;-------------------------------------------------;%;=;=-----;==;--------;==;=--=-%O............         ",
"         ...X........@-----------------------------------=----------=----;;=-=;-----=;-=--------=;;=;-=;--#............         ",
"        .XX.........@=----------------------------------;::;:-----;;:::;----;=----;-;=-;--------;-----;-=;-@............        ",
"        ...........O=----------------------------=;-=-->iffff9--=9fffgi>---;=;-;--=--;----------=;=;-;=---;%O...........        ",
"       ............%--;=----------------------------;==,xnnnny=-=rnnnnx1=------=----------------=;-=--;==;--%..........O.       ",
"       X..........+=--=------------------------------;=,lnnnnr---rnnnnx>=;------------;---------;=-;=---;==;=+..........o       ",
"      .X.........O%---=;--------------------------=;--;,lnnnnt--=rnnnnz1----------------------------------;=;%............      ",
"      ...........@;-=;--------------------------=;-=;==,lnnnnt=--rnnnnz>=-----------------------------;=---;=;@...........      ",
"      ..........O%;-----;=---;-;----------------------;>lnnnnt=-=rnnnnx1=;=;=;--------------------------------%O..........      ",
"     ......X....@;---------;==-=-------------------;--=,lnnnnt=-=rnnnnx>=;;=--------------------=;------------;#.X....X....     ",
"     ..........O%;-------=;=;=-------------------======>lnnnnr===rnnnnx>----=---------------------------------;%o..........     ",
"    ...........+-----;---;=--;---------------33233333336xnnnni232unnnnx6:;==;---------------------------------;-@...........    ",
"    ...........&---------------------------=8vvvvbcbbbvbnnnnnncbbbnnnnnxkar6>;=;--------=;=---------------------%X.......X..    ",
"    X.........O=----------------;----------=8nnnnnnnnnnnnnnnnnnnnnnnnnnnnnnbkr>---------;=;=---------------------O..........    ",
"   ...XX....XX$----------------------------=7nnnnnnnnnnnnnnnnnnnnnnnnnnnnnnnnnk9;--------;------;----------------$.........X.   ",
"   ....X....Xo*----------------------------*8nnnnnnnnnnnnnnnnnnnnnnnnnnnnnnnnnnbr;-------------------------------*X.........X   ",
"   ..........O----------;=----;-----------;=9nnnnnnnnnnnnnnnnnnnnnnnnnnnnnnnnnnnnq=-------------=;--------=;=;=;--O..........   ",
"   ..........#-----------=--=;=----=------==3iiiiilnnnnnnnnnnlffgkxcbnnnnnnnnnnnnc3=-------;----;------=-;=--=;=--@......X...   ",
"  ...........&;----------;--;=;;--;;--;=----==;=;-4cnnnnnnnnl2:::>117ylnnnnnnnnnnnu------=------=;----=;=;---;----%O.....XX...  ",
"  ..........O&--------------=;==;==---=;----;-=;---innnnnnnnl>=--=-===1unnnnnnnnnnk>----;;--=;--;=----;=-----=----=O..........  ",
"  .X...X....+-----------------=-;=-;--------------=rnnnnnnnnl,-----;--=:pnnnnnnnnnc2=---=-------==;-;=;;-----------@X.........  ",
"  ....XX....#-------------------=;==--=;----------=qnnnnnnnnl>=--------=4cnnnnnnnnb4----;-------;-=-=;=-=;---------$......o...  ",
"  .........O&---------------;-=-;==;;=------------=0nnnnnnnnl>=--------=>lnnnnnnnnc2=---=--=----=;-;-=-------------*..X.....XX  ",
"  .........O&-----------------;=;-;-=;=;----------=0nnnnnnnnl>---------->fnnnnnnnnx1-------;----;=-=;=-------------%X.......X.  ",
" ..........O----------------;=;;------------------=0nnnnnnnnl>=---------1znnnnnnnng:------------=;=;=--==-;-------;=O........X. ",
" .........XO----------------=;=-------------------=0bnnnnnnnl,----------ennnnnnnnnr=------------;=;=;--;---------;==O.......... ",
" ..........@=-=;-------=----;=;=---------;------=;=qnnnnnnnnl,------*--0cnnnnnnnnl1=-------------=;;------------=;--@...o...... ",
" ..........#;=;=------------=;=------------------;=0nnnnnnnnl:==---:18svnnnnnnnnx6--------------=;=---;=-;------;=-=#.......... ",
" ..........#----------;--------------------------==0bnnnnnnncuyyuipkxnnnnnnnnnnl6---------------;=;=------;---------#....o..... ",
" ..........&;=--------------;=------------------=;=qnnnnnnnnnnnnnnnnnnnnnnnnnnc8;------------------;=------=--------#.......... ",
" ..........#-------------------=----------------;==0nnnnnnnnnnnnnnnnnnnnnnnnnnnzi6;-------------=;;=;=-=-----------;%.......... ",
" ..........%---------------;=--;-------------------0bnnnnnnnnnnnnnnnnnnnnnnnnnnnnbp<---------;=---=;=;=;-----=------%........XX ",
" .........X%;-------------------------------------=0nnnnnnnnnnnnnnnnnnnnnnnnnnnnnnnh1----------------;=;-----------;#O......... ",
" X........X%=-------------------------------------=0bnnnnnnnbkaasfgkzcnnnnnnnnnnnnnns:--------------;=;=------------#.......... ",
" .X.......X$;=;=--------------------------------;==0nnnnnnnnl1;;--->,27uznnnnnnnnnnnn9=--;----------=;=;=-----------#.......... ",
" ....X....X$-;----------------------------------;-=0bnnnnnnnl>-------=--1innnnnnnnnnnp--------------;=;=------------#.......... ",
" ........X.@------------------------------------===0nnnnnnnnl>==----------tnnnnnnnnnnl>=----------=;-;-=------;%----#O......... ",
" ........X.@-------------------------------------;=0bnnnnnnnl,=;---------=>knnnnnnnnnc3--------------==;-----;;;----O......X... ",
" .X........O------------------------------------=-=9nnnnnnnnl>==----------=ennnnnnnnnb5=---------;-=-;;-;-----;=----O.......... ",
" ..........O------------------------------------;;=0nnnnnnnnl,;;----------=7vnnnnnnnnb4=;-------=------=------=;----OO......... ",
"  .........o*------------------------------------==9nnnnnnnnl>-------------0nnnnnnnnnb4=-----------;-----------=---=X.........  ",
"  ..........$------------------------------------;=qbnnnnnnnl,=-----------:pnnnnnnnnnx2=----------------------=;---&X.........  ",
"  ...o......@-------------------------------------=tnnnnnnnnl>=-----------ennnnnnnnnnk:-----------=----------------@......X...  ",
"  .X........@-----------------------------------=-;annnnnnnnl,-------=-->ybnnnnnnnnnnu;-------------------------;-=@..X.......  ",
"  ..........o*-------------------------------:-:-:7cnnnnnnnnl>=---->:16tlnnnnnnnnnnnb6------------;=--;--=------===O........X.  ",
"  ..........o*-----------------------------=3pppppxnnnnnnnnncuyuupsklzbnnnnnnnnnnnnnf:------------------=;-------;%...........  ",
"   .......ooo@-----------------------------=7nnnnnnnnnnnnnnnnnnnnnnnnnnnnnnnnnnnnnnc4%---------------=--;---------%..........   ",
"   ......o.ooo*----------------------------=7bnnnnnnnnnnnnnnnnnnnnnnnnnnnnnnnnnnnnc9;;---------------;------------O....X.....   ",
"   ..........o*----------------------------=6vnnnnnnnnnnnnnnnnnnnnnnnnnnnnnnnnnnnk7---;=-----------=-=-----------&O..........   ",
"   ....X......$----------------------------=7nnnnnnnnnnnnnnnnnnnnnnnnnnnnnnnnnnlr1=----------------;-;----------;@...........   ",
"    ..........O=----------------------------7nnnnnnnnnnnnnnnnnnnnnnnnnnnnnbbzpw1=---=;;=----------=-------------=O..........    ",
"    .....o....X*----------------------------4sfffffgfffznnnnbkkklnnnnnliiw94>:--------------------;-------------%...........    ",
"    ...........+;;----------------------------:::;::;:-unnnnz1::3cnnnne=-===----------;=------;=----------------@...........    ",
"     ....X....Xo%-------------------------------=--=--=ynnnnl>==1cnnnne=--------;--=--=;-----;=---=;-----------*O.......X..     ",
"     ........o..@---;=--------------------------------=ynnnnl>==1cnnnn0==--------=-;;=;=--;=-=-----;-;---------@...........     ",
"      ......X...O%;---=;-------------------------------ynnnnl>=-1cnnnne=-------;--=;=;--=;=;=;---=;=----------*o..........      ",
"      ...........@=;=-;==;---;=-;=--------------------=ynnnnk>=-1cnnnnq=--;=;=;=-;------;---------------------@...........      ",
"      ...........O%;---------=;-------------;=--------=unnnnk>-=1cnnnnw=--;-=;----=--------------------------*o...o.......      ",
"       ...........O=------;==;=;--------;---;=;=------=ynnnnz>--1cnnnnq---=-;=;=--------;=----;=-------------+..........o       ",
"       ..........XX$--;=--=-----;=-----------;=;------=ynnnnz>--1cnnnnw=;---=;=;--------=-------------------$o...........       ",
"        ...........O%;------;-=-=--=-----;------------=0ggffi>=->agfff7=---;==-----------------------------*O...........        ",
"        ............@=--;=--=-;-;-=;--------=;-=-------;;:;;;---;::;:;;=--=;=;=;-------------;;=-----------+...X........        ",
"         ...........O#;----;;----=;=-----------------------=-----=--==;----=;-==---------------=----------$......X.....         ",
"         ......o.....O%-----==;---;------------------------------;--;---------;--------------=-;---------*o............         ",
"          .......o....O*--------------------------------------------------------------------------------=O............          ",
"           ............+--------------------------------------------------------------------------------+............           ",
"           .............@-----------------------------------------------------------------------------=@.............           ",
"            .............@----------------------------------------------------------------------------@X............            ",
"             ............X@-------------------------------------------------------------------------=$X............             ",
"             ............Xo@=--------------------------------;-------------------------------------=@X.............             ",
"              X............X@---------------------------------------------------;-----------------=@X.............              ",
"               .....o..o..X.o+*------------------------------------------------------------------=@..............               ",
"                ..........X...O*;--;=;------------------;--=------------------------------------%+X.............                ",
"                 .............XO%=--;=--------------=;--=--;-----------------------------------%OX.............                 ",
"                 ...............O@=;%;---;----;----------------------------------------------=@X..........X...                  ",
"                  ............XX.XO%;;----------;--------------------------------;----------%+XX........XX....                  ",
"                   ................X%%;--;=------=-;----;%--------------------------------*@X............X...                   ",
"                    ................XO@=--=;----------=-;;------------------------------=$OX...........X....                    ",
"                      ....XX........XX.O%=;=-----;------;-----------------------------=%Oo..........X..X..                      ",
"                       ....X.......X.....+%%-------=--------------------------------=$O..................                       ",
"                        .X.................O@%-----------------------------------=*@o........X..........                        ",
"                         .............X......X+@%----------;---------------;---%$Oo....................                         ",
"                          .....X................X+@$%----------------------%%@OX......................                          ",
"                            ......X.............XXXXXO+@%%%*=======--%%$$OOXXXXX.......X............                            ",
"                             ....................X......XXXOOOOOoOXXXX......X...................o..                             ",
"                               ........................XXXXX....XX..XX......XX..........X.....oX.                               ",
"                                ...X............................XXX.XXXX......X.................                                ",
"                                  ..X...........................XXX.XXXX......................                                  ",
"                                    .....X...........X...................X............X.....                                    ",
"                                      ........X................................X..........                                      ",
"                                         .........X......................X........X....                                         ",
"                                           ..X......X......X.........................                                           ",
"                                              .............X...X..................                                              ",
"                                                  .............X..............                                                  ",
"                                                        ................                                                        ",
"                                                                                                                                "
};
