/* XPM */
static char *bitcoin64[] = {
/* columns rows colors chars-per-pixel */
"64 64 238 2 ",
"   c None",
".  c #D27A1F",
"X  c #D47B1F",
"o  c #D57B1F",
"O  c #D67B1F",
"+  c #D67C1F",
"@  c #D67C20",
"#  c #D67D20",
"$  c #D77D20",
"%  c #D77D21",
"&  c #D77E21",
"*  c #D77F21",
"=  c #D77E22",
"-  c #D77F22",
";  c #D87F22",
":  c #D87F23",
">  c #D88023",
",  c #D88124",
"<  c #D98125",
"1  c #D88224",
"2  c #D98224",
"3  c #D98225",
"4  c #D98326",
"5  c #D98327",
"6  c #D98427",
"7  c #DA8427",
"8  c #DA8527",
"9  c #DA8629",
"0  c #DB872A",
"q  c #DB8829",
"w  c #DB882A",
"e  c #DB882B",
"r  c #DB882C",
"t  c #DB892C",
"y  c #DC882C",
"u  c #DC892C",
"i  c #DC8B2E",
"p  c #DD8B2E",
"a  c #DD8B2F",
"s  c #DD8C2F",
"d  c #DD8C30",
"f  c #DD8D30",
"g  c #DE8F32",
"h  c #DF9135",
"j  c #DF9235",
"k  c #DF9236",
"l  c #E09236",
"z  c #E09336",
"x  c #E09538",
"c  c #E09539",
"v  c #E1963A",
"b  c #E1973A",
"n  c #E1973B",
"m  c #E2983B",
"M  c #E39A3B",
"N  c #E2983C",
"B  c #E2993C",
"V  c #E2993D",
"C  c #E39A3C",
"Z  c #E39B3C",
"A  c #E29A3D",
"S  c #E39B3D",
"D  c #E3993E",
"F  c #E29A3E",
"G  c #E39A3E",
"H  c #E39B3E",
"J  c #E39A3F",
"K  c #E39B3F",
"L  c #E49B3D",
"P  c #E49B3E",
"I  c #E49C3E",
"U  c #E49C3F",
"Y  c #E39B40",
"T  c #E39C40",
"R  c #E49C40",
"E  c #E49D40",
"W  c #E49C41",
"Q  c #E49D41",
"!  c #E49E41",
"~  c #E49D42",
"^  c #E49E42",
"/  c #E49E43",
"(  c #E49E44",
")  c #E49F44",
"_  c #E5A046",
"`  c #E5A047",
"'  c #E5A148",
"]  c #E5A149",
"[  c #E5A24A",
"{  c #E6A34B",
"}  c #E6A34D",
"|  c #E6A44D",
" . c #E6A44E",
".. c #E6A44F",
"X. c #E6A550",
"o. c #E6A551",
"O. c #E6A652",
"+. c #E7A753",
"@. c #E7A754",
"#. c #E7A755",
"$. c #E7A856",
"%. c #E7A857",
"&. c #E7A958",
"*. c #E7AA59",
"=. c #E7AA5A",
"-. c #E8AB5C",
";. c #E8AC5D",
":. c #E8AC5E",
">. c #E8AC5F",
",. c #E8AD60",
"<. c #E9AE62",
"1. c #E9AE63",
"2. c #E9AF64",
"3. c #E9B064",
"4. c #E9B065",
"5. c #E9B167",
"6. c #E9B269",
"7. c #EAB36A",
"8. c #EAB36B",
"9. c #EAB46D",
"0. c #EAB46E",
"q. c #EAB56E",
"w. c #EAB56F",
"e. c #EAB570",
"r. c #EBB671",
"t. c #EBB672",
"y. c #EBB773",
"u. c #EBB874",
"i. c #EBB876",
"p. c #EBB977",
"a. c #ECBA78",
"s. c #ECBA79",
"d. c #ECBA7A",
"f. c #ECBB7A",
"g. c #ECBC7D",
"h. c #EDBE81",
"j. c #EDBF82",
"k. c #EDBF83",
"l. c #EDC085",
"z. c #EDC185",
"x. c #EDC186",
"c. c #EEC289",
"v. c #EEC38A",
"b. c #EEC38B",
"n. c #EEC48C",
"m. c #EFC58E",
"M. c #EFC58F",
"N. c #EFC792",
"B. c #F0C895",
"V. c #F0CA98",
"C. c #F0CA99",
"Z. c #F0CB99",
"A. c #F1CC9C",
"S. c #F1CC9D",
"D. c #F1CD9D",
"F. c #F1CD9E",
"G. c #F1CEA0",
"H. c #F1CFA1",
"J. c #F1CFA2",
"K. c #F1D0A3",
"L. c #F2D0A3",
"P. c #F2D0A4",
"I. c #F2D2A8",
"U. c #F2D3A9",
"Y. c #F3D4AB",
"T. c #F3D5AE",
"R. c #F3D6AE",
"E. c #F3D6AF",
"W. c #F4D8B3",
"Q. c #F4D9B5",
"!. c #F4DAB7",
"~. c #F4DBB8",
"^. c #F5DCBB",
"/. c #F5DDBE",
"(. c #F6DEBF",
"). c #F5DEC0",
"_. c #F6E1C4",
"`. c #F6E1C5",
"'. c #F6E2C6",
"]. c #F7E2C6",
"[. c #F7E2C7",
"{. c #F7E3C9",
"}. c #F7E4CB",
"|. c #F7E4CC",
" X c #F7E5CE",
".X c #F7E6CE",
"XX c #F8E6CF",
"oX c #F8E7D1",
"OX c #F8E7D2",
"+X c #F8E8D2",
"@X c #F8E8D3",
"#X c #F8E9D5",
"$X c #F8EAD6",
"%X c #F9EAD7",
"&X c #F9EBD9",
"*X c #F9ECD9",
"=X c #F9ECDA",
"-X c #F9EDDB",
";X c #FAEDDC",
":X c #FAEDDD",
">X c #FAEEDE",
",X c #FAEFE1",
"<X c #FAF0E3",
"1X c #FAF1E3",
"2X c #FBF1E4",
"3X c #FBF2E7",
"4X c #FBF3E7",
"5X c #FBF3E8",
"6X c #FBF3E9",
"7X c #FBF4EB",
"8X c #FCF5EB",
"9X c #FCF5EC",
"0X c #FCF5ED",
"qX c #FCF6ED",
"wX c #FCF6EE",
"eX c #FCF6EF",
"rX c #FCF7EF",
"tX c #FCF7F0",
"yX c #FCF8F2",
"uX c #FDF9F4",
"iX c #FDF9F5",
"pX c #FDFAF5",
"aX c #FDFAF6",
"sX c #FDFBF7",
"dX c #FDFBF8",
"fX c #FDFBF9",
"gX c #FDFCF9",
"hX c #FDFCFA",
"jX c #FDFCFB",
"kX c #FEFCFB",
"lX c #FEFDFB",
"zX c #FEFDFC",
"xX c #FEFDFD",
"cX c #FEFEFD",
"vX c #FEFEFE",
"bX c #FEFEFF",
"nX c #FEFFFF",
"mX c white",
/* pixels */
"                                                            + + + +                                                             ",
"                                                o + + + + + + + + + + + + + + X                                                 ",
"                                          + + + + + + + + + + + + + + + + + + + + + +                                           ",
"                                      + + + + + + + + + + + + + + + + + + + + + + + + + +                                       ",
"                                  + + + + + + + + + + + + + + + + + + + + + + + + + + + + + +                                   ",
"                              + + + + + + + + + + + + + & - > , , > - & + + + + + + + + + + + + +                               ",
"                            + + + + + + + + + + > 9 d j v N F J G G N v j s 9 > + + + + + + + + + +                             ",
"                        + + + + + + + + + - 0 h V Q ^ ^ ^ ^ ^ ^ ^ ^ ^ ^ ^ ^ Q V h 0 - + + + + + + + + +                         ",
"                      + + + + + + + + ; i n Q ^ ^ ^ ^ ~ ^ ^ ^ ^ ^ ^ ^ ^ ^ ^ ^ ^ ^ Q b i : + + + + + + + +                       ",
"                    + + + + + + + $ u n ^ ^ ^ ~ ~ ~ ^ ~ ~ ~ ^ ^ ^ ^ ~ ^ ^ ~ ~ ^ ^ ~ ^ ^ n t % + + + + + + +                     ",
"                  + + + + + + + 3 z Q ^ ^ ~ ^ ^ ^ ^ ^ ~ ^ ~ ^ ~ ^ ^ ^ ^ ^ ^ ~ ~ ^ ^ ^ ^ ^ Q l 3 + + + + + + +                   ",
"                + + + + + + + 0 B ^ ^ ^ ~ ~ ^ ^ ^ ~ ~ ~ ^ ^ ^ ^ ^ ^ ^ ^ ^ ^ ^ ^ ~ ^ ^ ~ ~ ^ ^ B 0 + + + + + + +                 ",
"              + + + @ + + # p T ^ ^ ^ ^ ^ ^ ^ ^ ~ ~ ~ ^ ^ ^ ^ ~ ^ ^ ^ ^ ^ ^ ^ ^ ~ ^ ~ ^ ^ ~ ~ ^ Y i # + + + + + +               ",
"              + + + + + # d Q ^ ^ ^ ^ ^ ^ ^ ^ ~ ~ ~ ^ ~ ^ ^ ^ ^ ^ ~ ^ ~ ~ ~ ^ ^ ^ ^ ^ ^ ~ ~ ^ ^ ^ W d $ + + + + +               ",
"            + + + + + @ s Q ^ ~ ^ ~ ^ ^ ^ ^ ^ ~ ^ ~ ^ ~ ^ ~ ^ ^ ^ ^ ^ ^ ~ ~ ~ ^ ~ ^ ^ ^ ^ ^ ^ ^ ^ ^ Q a + + + + + +             ",
"          + + + + + + y R ^ ~ ^ ^ ~ ^ ^ ^ ^ ^ ^ ^ ^ ^ ~ ~ ~ ^ ~ ~ ^ ^ ^ ^ ~ ^ ~ ~ ^ ^ ^ ^ ^ ^ ^ ^ ^ ^ T t + + + + + +           ",
"          + + + + + 6 G ^ ~ ~ ^ ~ ^ ~ ~ ^ ^ ^ ^ ~ ~ ^ ~ U U R ^ Q U U E ^ ~ ~ ~ ^ ^ ^ ^ ^ ^ ^ ~ ~ ~ ^ ^ G 4 + + + + +           ",
"        + + + + + - c ^ ~ ~ ~ ~ ~ ^ ~ ^ ~ ^ ^ ~ ~ ~ Q [ j.M.p.^ %.b.m.5.Q ^ ^ ^ ^ ^ ^ ^ ^ ~ ^ ~ ^ ~ ^ ^ ^ x - + + + + +         ",
"        + + + + + s ~ ~ ~ ~ ~ ^ ~ ^ ^ ^ ^ ^ ^ ^ ^ ^ E $.1XmX[./ i.gXnXF.U ~ ^ ~ ~ ^ ^ ^ ^ ^ ^ ^ ~ ~ ~ ^ ^ ~ s + + + + +         ",
"      + + + + + 3 D ^ ~ ~ ^ ^ ~ ^ ~ ^ ^ ^ ^ ~ ^ ~ ~ E $.1XmX[./ i.fXnXF.U ^ ~ ^ ^ ^ ^ ^ ~ ^ ^ ^ ^ ^ ^ ^ ^ ^ F 3 + + + + +       ",
"      + + + + + g ^ ^ ^ ^ ^ ^ ^ ^ ^ ^ ^ ^ ^ Q E E E I @.<XmX].Q u.fXnXS.I ~ ^ ^ ^ ^ ^ ^ ~ ^ ~ ^ ^ ^ ~ ~ ^ ^ ^ g + + + + +       ",
"    + + + + + 3 G ^ ^ ~ ^ ~ ^ ~ ^ ~ ^ ^ ^ ^ @.>.:.:.;.e.4XnXXX,.v.hXnXU.| / U Q ^ ^ ^ ^ ~ ~ ~ ^ ^ ^ ~ ~ ^ ^ ^ G < + + + + +     ",
"    + + + + + s ^ ^ ^ ~ ^ ^ ^ ^ ^ ^ ^ ^ ^ ~ T.tX0X0X0XeXlXvXgXqXyXcXvXyX=X^.z. .E ^ ^ ^ ^ ^ ^ ~ ^ ^ ^ ^ ~ ^ ^ ^ s + + + + +     ",
"    + + + + & v ^ ^ ^ ^ ^ ^ ^ ~ ~ ~ ^ ^ ^ ^ ^.mXnXnXnXbXvXvXnXnXnXnXvXbXnXnXlX}.2.E ~ ~ ^ ^ ^ ~ ^ ~ ~ ^ ^ ^ ~ ^ v & + + + +     ",
"  . + + + + 6 T ^ ^ ^ ~ ^ ^ ^ ~ ~ ~ ^ ^ ^ ~ A.+XOXtXbXvXvXvXwX-X>X5XaXnXvXvXvXnXoX+.Q ~ ^ ^ ~ ~ ^ ^ ~ ~ ^ ~ ^ ^ T 6 + + + + +   ",
"  + + + + + s ^ ^ ^ ^ ~ ^ ^ ^ ^ ^ ^ ~ ^ ^ ~ _ ] ' Z.vXvXvXnXL. .O.=.r.Q.gXvXvXvXcXc.U ^ ~ ^ ^ ^ ~ ^ ~ ^ ^ ^ ^ ~ ^ a + + + + +   ",
"  + + + + # z ^ ^ ^ ^ ^ ^ ^ ~ ~ ~ ^ ^ ^ ~ ~ ~ Q I y.sXvXvXnXC.P Q E U ' ).nXvXvXnXI.E ^ ~ ~ ^ ^ ~ ~ ~ ~ ^ ^ ^ ~ ^ z # + + + +   ",
"  + + + + - m ^ ^ ~ ~ ^ ^ ^ ~ ~ ^ ^ ^ ^ ^ ~ ~ ~ U e.aXvXvXnXZ.U ~ ^ ^ I B.nXvXvXnXP.R ~ ~ ^ ^ ^ ~ ~ ~ ^ ^ ~ ~ ~ ^ m - + + + +   ",
"  + + + + 1 K ^ ^ ~ ^ ^ ^ ^ ~ ^ ^ ^ ^ ^ ^ ^ ^ ~ U e.pXvXvXnXZ.I Q Q U / W.nXvXvXzXj.U ~ ^ ^ ~ ^ ^ ^ ^ ^ ~ ^ ^ ^ ^ H 2 + + + +   ",
"  + + + + 8 E ~ ~ ~ ^ ^ ^ ^ ^ ~ ^ ^ ^ ^ ^ ~ ^ ^ U w.pXbXvXnXA.( ' ..1.J.uXbXvXvX`.X.Q ~ ^ ^ ^ ^ ^ ^ ^ ^ ^ ^ ^ ^ ^ R 8 + + + +   ",
"+ + + + O q ! ~ ^ ^ ^ ~ ~ ~ ~ ~ ^ ^ ^ ^ ^ ~ ~ ^ U w.pXbXvXvX,X{. X&XwXvXbXvXnX@X-.I ^ ^ ^ ~ ^ ^ ^ ^ ~ ~ ^ ~ ~ ~ ^ ! q O + + + + ",
"+ + + + O w ! ~ ^ ^ ^ ~ ~ ^ ~ ~ ^ ~ ^ ^ ^ ^ ~ ^ U w.pXbXvXvXnXmXmXmXnXbXvXvXvXtX(.q.Q ^ ~ ^ ^ ~ ^ ^ ~ ~ ^ ^ ~ ~ ^ ! w O + + + @ ",
"+ + + + O w ! ^ ^ ~ ^ ~ ^ ~ ~ ~ ^ ^ ^ ^ ^ ^ ^ ~ U q.pXbXvXvX7X$X%X:X5XaXnXvXvXbXnX6Xt.E ~ ~ ^ ^ ^ ^ ^ ^ ^ ^ ^ ^ ~ ! w O + + + + ",
"+ + + + O q ! ^ ^ ~ ~ ~ ^ ^ ~ ~ ^ ^ ~ ^ ^ ~ ~ ^ U q.pXbXvXnXG.[ } o.=.y.~.fXvXvXvXnX_.` Q ^ ^ ^ ^ ^ ^ ^ ~ ~ ^ ^ ^ ! q + + + + + ",
"  + + + + 8 E ^ ~ ~ ~ ~ ~ ~ ~ ~ ^ ~ ~ ^ ^ ^ ~ ~ U 0.iXbXvXnXZ.I Q Q E U ` E.bXvXvXnX3X*.E ~ ~ ~ ^ ~ ^ ^ ~ ~ ^ ^ ^ E 8 + + + +   ",
"  + + + + 2 H ^ ^ ~ ^ ^ ~ ~ ^ ~ ~ ~ ~ ^ ^ ^ ~ ^ U 9.iXbXvXnXZ.U ~ ~ ~ ^ U 0.iXbXvXbXrX<.R ~ ^ ~ ^ ^ ^ ^ ^ ^ ^ ~ ^ H 1 + + + +   ",
"  + + + + - m ^ ^ ^ ^ ~ ~ ^ ^ ~ ~ ~ ~ ^ ^ ^ ^ ^ U 0.pXbXvXnXZ.U ~ ^ ^ ~ L g.dXvXvXnX8X;.E ~ ^ ~ ~ ^ ^ ^ ^ ~ ~ ~ ^ m * + + + +   ",
"  + + + + # z ^ ^ ^ ^ ^ ^ ^ ~ ~ ^ ~ ^ ~ ~ ~ E U C h.lXvXvXnXV.C U I U ) 8.%XnXvXvXnX#X| Q ^ ^ ^ ~ ^ ^ ^ ~ ^ ~ ^ ^ z # + + + +   ",
"  + + + + + s ^ ^ ^ ~ ^ ^ ~ ~ ^ ^ ~ ^ ~ ~ ~ 7.l.x..XnXvXvXnX!.s.j.n.A./.0XnXvXvXvXnXD.Q ~ ^ ^ ~ ^ ^ ^ ^ ~ ^ ^ ^ ^ a + + + + +   ",
"  . + + + + 6 T ^ ~ ~ ^ ~ ~ ~ ^ ~ ^ ^ ~ ~ Q W.nXxXbXvXvXvXvXzXjXzXvXnXnXbXvXvXnXnX|.#.Q ^ ~ ~ ^ ~ ~ ~ ^ ^ ^ ^ ^ T 7 + + + + +   ",
"    + + + + & v ^ ~ ~ ^ ~ ~ ^ ^ ^ ^ ^ ^ ^ Q Q.mXnXnXnXnXvXvXnXnXnXvXvXnXnXnXbX0XR.&.E ~ ~ ^ ~ ~ ~ ~ ~ ^ ^ ~ ^ ^ v & + + + +     ",
"    + + + + + s ^ ^ ^ ^ ^ ^ ^ ~ ~ ^ ^ ^ ^ Q F.;X*X*X&X2XcXvX9X:XwXbXxX>X'.W.N.3.) E ^ ~ ^ ^ ^ ^ ^ ^ ^ ^ ^ ~ ^ ^ s + + + + +     ",
"    + + + + + < G ^ ^ ^ ^ ^ ^ ~ ^ ^ ~ ^ ^ ^ ]  . . .{ k.kXnXH.} Y.nXdXa./ Q U E ~ ^ ^ ^ ~ ^ ^ ~ ^ ^ ^ ^ ~ ~ ^ G < + + + + +     ",
"      + + + + + g ^ ~ ~ ~ ~ ~ ~ ^ ^ ^ ~ ^ ^ Q Q Q Q P d.kXnXV.M K.nXsXr.U ~ ~ ^ ^ ^ ^ ^ ~ ^ ^ ~ ~ ^ ^ ^ ~ ~ ^ g + + + + +       ",
"      + + + + + 3 A ^ ^ ^ ^ ^ ^ ~ ^ ^ ~ ^ ^ ^ ^ ^ ^ U d.kXnXC.Z L.nXsXr.U ^ ^ ^ ^ ~ ^ ^ ~ ~ ^ ^ ~ ~ ~ ~ ~ ^ G 3 + + + + +       ",
"        + + + + + s ~ ^ ^ ^ ~ ^ ~ ^ ^ ^ ^ ^ ^ ^ ^ ^ U f.lXnXC.S K.nXsXr.U ^ ^ ^ ^ ~ ^ ^ ~ ~ ^ ^ ^ ~ ^ ^ ^ ~ s + + + + +         ",
"        + + + + + - c ^ ^ ^ ^ ^ ^ ~ ^ ^ ^ ^ ^ ~ ~ ^ Q &.n.m.4.R 6.m.b.#.Q ~ ~ ~ ^ ~ ~ ^ ^ ^ ^ ^ ^ ~ ^ ~ ^ x = + + + + +         ",
"          + + + + + 5 G ^ ^ ~ ^ ^ ^ ^ ^ ^ ~ ~ ^ ~ ~ ~ Q U I E ^ E U U Q ^ ~ ^ ^ ^ ^ ~ ^ ~ ~ ~ ~ ^ ^ ~ ^ G 5 + + + + +           ",
"          + + + + + + r R ^ ^ ~ ~ ^ ~ ^ ~ ^ ~ ~ ~ ^ ^ ^ ^ ^ ^ ^ ^ ^ ^ ^ ^ ~ ^ ^ ^ ~ ^ ^ ^ ^ ~ ^ ^ ~ ^ T e + + + + + +           ",
"            + + + + + + s Q ^ ~ ^ ~ ^ ~ ^ ^ ^ ^ ~ ~ ^ ~ ^ ^ ~ ^ ^ ^ ~ ^ ^ ~ ~ ^ ~ ~ ^ ^ ^ ~ ~ ^ ^ ^ Q s @ + + + + +             ",
"              + + + + + # f Q ^ ^ ^ ^ ^ ^ ^ ^ ^ ~ ~ ^ ^ ~ ^ ^ ^ ^ ~ ~ ~ ^ ~ ^ ^ ^ ^ ~ ^ ^ ~ ^ ^ ^ Q d $ + + + + +               ",
"              + + + + + + $ p T ^ ^ ^ ^ ^ ^ ^ ~ ~ ^ ~ ^ ^ ^ ^ ^ ^ ~ ~ ^ ^ ^ ^ ^ ^ ^ ~ ~ ^ ^ ^ ^ T i # + + + + + +               ",
"                + + + + + + + 0 V ^ ^ ^ ^ ^ ^ ^ ^ ^ ~ ^ ~ ^ ^ ^ ~ ^ ^ ^ ~ ^ ^ ^ ^ ~ ~ ^ ^ ^ ^ V 0 + + + + + + +                 ",
"                  + + + + + + + 3 l Q ^ ^ ~ ~ ^ ~ ^ ^ ^ ^ ^ ^ ^ ^ ~ ~ ^ ^ ^ ^ ~ ^ ^ ^ ^ ^ Q k 3 + + + + + + +                   ",
"                    + + + + + + + % t n ^ ^ ^ ^ ^ ~ ^ ~ ~ ^ ^ ^ ~ ^ ^ ~ ~ ^ ^ ^ ~ ^ ^ ^ n t % + + + + + + +                     ",
"                      + + + + + + + + - i n Q / ^ ^ ^ ~ ^ ^ ^ ^ ^ ~ ~ ^ ~ ~ ^ ^ ^ Q b i ; + + + + + + + +                       ",
"                        + + + + + + + + + - 0 h V Q ^ ^ ^ ^ ^ ^ ^ ^ ^ ^ ^ ^ Q V h 0 - + + + + + + + + +                         ",
"                            + + + + + + + + + + > 9 d k v N F G G G N v j d 9 > + + + + + + + + + +                             ",
"                              + + + + + + + + + + + + @ & ; > , , > ; & + + + + + + + + + + + + +                               ",
"                                  + + + + + + + + + + + + + + + + + + + + + + + + + + + + + +                                   ",
"                                      + + + + + + + + + + + + + + + + + + + + + + + + + +                                       ",
"                                          + + + + + + + + + + + + + + + + + + + + + +                                           ",
"                                                o + + + + + + + + + + + + + + X                                                 ",
"                                                            + + + +                                                             "
};
