/* XPM */
static char *bitcoin16[] = {
/* columns rows colors chars-per-pixel */
"16 16 63 1 ",
"  c None",
". c #D67B1E",
"X c #D67B1F",
"o c #D67C1F",
"O c #D77E22",
"+ c #D88124",
"@ c #D88125",
"# c #D88225",
"$ c #D98225",
"% c #DB882B",
"& c #DC892D",
"* c #DD8C30",
"= c #DD8D31",
"- c #DE8E32",
"; c #DF9235",
": c #DF9236",
"> c #E2993D",
", c #E39A3E",
"< c #E49C3E",
"1 c #E49C3F",
"2 c #E49D40",
"3 c #E49D41",
"4 c #E49D42",
"5 c #E49E42",
"6 c #E49E43",
"7 c #E49F44",
"8 c #E5A047",
"9 c #E5A24B",
"0 c #E6A44E",
"q c #E6A652",
"w c #E7A753",
"e c #E7A856",
"r c #E8AC5E",
"t c #E9B066",
"y c #E9B167",
"u c #ECBA79",
"i c #ECBA7A",
"p c #ECBD7E",
"a c #EDBD80",
"s c #EDBE80",
"d c #EDBE82",
"f c #EDBF82",
"g c #EEC187",
"h c #EEC289",
"j c #EFC48D",
"k c #EFC58E",
"l c #F1CFA2",
"z c #F2D2A8",
"x c #F3D5AD",
"c c #F4D8B3",
"v c #F5DBB9",
"b c #F6E1C6",
"n c #F7E3C9",
"m c #F7E6CE",
"M c #F8E7D2",
"N c #F8E8D3",
"B c #F8E9D4",
"V c #F8EAD6",
"C c #F9EAD8",
"Z c #F9EBD8",
"A c #F9EBD9",
"S c #FBF2E7",
"D c #FBF3E9",
/* pixels */
"     X.XX.X     ",
"    o+%**%+o    ",
"  oO*>4554>*Oo  ",
"  O:55433455;O  ",
" o=5520ds8355=o ",
".#,52yxZVj935,@X",
".&553ebngSa155&.",
"o-5551zNlDi155-o",
"o-545<znuMv745-o",
".&553rmmhAc645&.",
".$,52txCBkw35,@.",
" o=551qfp7255=o ",
"  O:55433555;O  ",
"  oO*>4554>*Oo  ",
"    o+%**%+o    ",
"     X.XX.X     "
};
