/* XPM */
static char *bitcoin32[] = {
/* columns rows colors chars-per-pixel */
"32 32 138 2 ",
"   c None",
".  c #D67C1F",
"X  c #D67C20",
"o  c #D77D20",
"O  c #D77E21",
"+  c #D77F22",
"@  c #D87F22",
"#  c #D88024",
"$  c #D88124",
"%  c #D88224",
"&  c #D98224",
"*  c #D98225",
"=  c #D98226",
"-  c #D98426",
";  c #DA8629",
":  c #DB882B",
">  c #DC892D",
",  c #DE8E32",
"<  c #DF9135",
"1  c #DF9235",
"2  c #E09236",
"3  c #E09336",
"4  c #E09539",
"5  c #E19539",
"6  c #E1963A",
"7  c #E1973A",
"8  c #E1973B",
"9  c #E2973B",
"0  c #E2983B",
"q  c #E39A3B",
"w  c #E2983C",
"e  c #E39A3C",
"r  c #E39B3D",
"t  c #E39A3E",
"y  c #E39B3E",
"u  c #E39B3F",
"i  c #E49C3E",
"p  c #E49C3F",
"a  c #E39C40",
"s  c #E49C40",
"d  c #E49D40",
"f  c #E49C41",
"g  c #E49D41",
"h  c #E49D42",
"j  c #E49E42",
"k  c #E49E43",
"l  c #E59F45",
"z  c #E5A047",
"x  c #E5A148",
"c  c #E5A149",
"v  c #E5A24A",
"b  c #E5A24B",
"n  c #E6A44E",
"m  c #E6A44F",
"M  c #E6A550",
"N  c #E6A551",
"B  c #E6A653",
"V  c #E7A754",
"C  c #E7A755",
"Z  c #E7A855",
"A  c #E8AA5A",
"S  c #E8AC5D",
"D  c #E8AC5E",
"F  c #E9AE62",
"G  c #E9AF63",
"H  c #E9B066",
"J  c #EAB269",
"K  c #EAB26A",
"L  c #EAB36B",
"P  c #EAB36C",
"I  c #EAB46E",
"U  c #EBB670",
"Y  c #EBB672",
"T  c #EBB773",
"R  c #EBB875",
"E  c #EBB876",
"W  c #EBB977",
"Q  c #ECBC7D",
"!  c #ECBC7E",
"~  c #EDBE81",
"^  c #EEC187",
"/  c #EEC288",
"(  c #EEC38A",
")  c #F0C997",
"_  c #F0CB9B",
"`  c #F1CC9C",
"'  c #F1CD9E",
"]  c #F2D0A3",
"[  c #F2D1A6",
"{  c #F3D4AB",
"}  c #F3D5AE",
"|  c #F3D6AF",
" . c #F3D6B1",
".. c #F4D8B3",
"X. c #F4D9B5",
"o. c #F5DBBA",
"O. c #F5DCBC",
"+. c #F5DDBD",
"@. c #F5DDBE",
"#. c #F6E0C3",
"$. c #F6E0C4",
"%. c #F6E1C4",
"&. c #F7E4CB",
"*. c #F8E6CF",
"=. c #F8E7D0",
"-. c #F8E9D4",
";. c #F8E9D5",
":. c #F9ECDB",
">. c #FAEEDF",
",. c #FAEFE0",
"<. c #FAEFE1",
"1. c #FAF0E3",
"2. c #FBF1E5",
"3. c #FBF2E6",
"4. c #FBF2E7",
"5. c #FBF4E9",
"6. c #FCF5EC",
"7. c #FCF6ED",
"8. c #FCF6EE",
"9. c #FCF6EF",
"0. c #FCF7EF",
"q. c #FCF7F0",
"w. c #FCF7F1",
"e. c #FCF8F2",
"r. c #FDF9F3",
"t. c #FDF9F4",
"y. c #FDF9F5",
"u. c #FDFAF5",
"i. c #FDFAF6",
"p. c #FDFBF8",
"a. c #FDFBF9",
"s. c #FDFCF9",
"d. c #FDFCFA",
"f. c #FEFDFB",
"g. c #FEFDFC",
"h. c #FEFEFE",
"j. c #FEFFFF",
"k. c white",
/* pixels */
"                          . . . . . .                           ",
"                    . . . . . . . . . . . .                     ",
"                . . . . . o @ # # + o . . . . .                 ",
"            . . . . O ; , 5 w t t w 5 , ; O . . . .             ",
"          . . . o : 5 f j j j j j j j j f 5 : o . . .           ",
"        . . . # 1 g j j j h j j j j j j j j g < # . . .         ",
"      . . . * 6 j j j j h j j j j j h j j j j j 6 * . . .       ",
"      . . $ 7 j j j j j j g p g d d h h j j j j j 7 $ . .       ",
"    . . O 3 j h j h j j g z K V S G k h j j j j h j 3 O . .     ",
"    . . > g j j j j j d p C >./ } %.l g j j j j j j g > . .     ",
"  . . + 8 j j j j j k Z A I 5.` @.=.B g g j h j j j j 8 @ . .   ",
"  . . : g j j j h g c $.8.6.f.r.a.d.:.] N g j h j j j g : . .   ",
"  . . < j j j j h h l Q  .f.g.X.` #.f.j.[ j h j j j j j < . .   ",
". . + 0 j j j h j j h r F w.s.Y q v *.k.&.z h j h h j j 0 + . . ",
". . % u j j j h j j j s G q.d.! n U <.h.' g j j j j j j y & . . ",
". . - a j j h h j j j s G 0.h.2.,.y.j.8.~ k h j j j j j a - . . ",
". . - a j h j h j j j s F 0.g...) { 1.j.0.E p j j j j j a - . . ",
". . & y j h h h h h j s F 9.d.T e i E u.k.] p h j j j j y % . . ",
". . + 0 j j j h h j j d J e.s.R d x ( p.j._ p j j j j j 0 + . . ",
"  . . < j j h h j g z ' -.h.g.&.O.*.i.k.2.H s h j j j j < X .   ",
"  . . : g j j j j g x +.2.4.f.7.d.t.;...L h h j h j j g : . .   ",
"  . . @ 8 j j h j j j m N E 9.^ *.o.v j d j j j j j j 9 + . .   ",
"    . . > g j j j j j g i H 3.W %.| d j j j h j j j g > . .     ",
"    . . O 3 j j j j j h g b P M G D h h j j j j j j 2 O . .     ",
"      . . $ 7 j j j j h h g p g d d j j j j j h j 7 $ . .       ",
"      . . . = 6 j j j j h h j j j h j j j j j j 6 * . . .       ",
"        . . . # 1 g j j j j j j h j j j j j g < # . . .         ",
"          . . . o : 5 f j j j j j j j j f 5 : o . . .           ",
"            . . . . O ; , 4 w t t w 4 , ; O . . . .             ",
"                . . . . . o @ # # + o . . . . .                 ",
"                    . . . . . . . . . . . .                     ",
"                          . . . . . .                           "
};
